<mxfile host="app.diagrams.net" modified="2021-01-10T21:54:34.415Z" agent="5.0 (Macintosh; Intel Mac OS X 10_14_6) AppleWebKit/537.36 (KHTML, like Gecko) Chrome/83.0.4103.116 Safari/537.36" etag="hROqSjeOq3sVZ-fXcFXO" version="14.1.9" type="github">
  <diagram id="prtHgNgQTEPvFCAcTncT" name="Page-1">
    <mxGraphModel dx="786" dy="491" grid="1" gridSize="10" guides="1" tooltips="1" connect="1" arrows="1" fold="1" page="1" pageScale="1" pageWidth="827" pageHeight="1169" math="0" shadow="0">
      <root>
        <mxCell id="0" />
        <mxCell id="1" parent="0" />
        <mxCell id="oZMk_79STPliOTQRdug_-21" value="" style="verticalLabelPosition=bottom;html=1;verticalAlign=top;align=center;strokeColor=none;fillColor=#00BEF2;shape=mxgraph.azure.cloud_service_package_file;" vertex="1" parent="1">
          <mxGeometry x="40" y="200" width="60" height="60" as="geometry" />
        </mxCell>
        <mxCell id="oZMk_79STPliOTQRdug_-30" style="edgeStyle=orthogonalEdgeStyle;rounded=0;orthogonalLoop=1;jettySize=auto;html=1;" edge="1" parent="1" source="oZMk_79STPliOTQRdug_-22" target="oZMk_79STPliOTQRdug_-29">
          <mxGeometry relative="1" as="geometry" />
        </mxCell>
        <mxCell id="oZMk_79STPliOTQRdug_-22" value="Chart" style="text;html=1;align=center;verticalAlign=middle;resizable=0;points=[];autosize=1;spacingBottom=90;" vertex="1" parent="1">
          <mxGeometry x="50" y="170" width="40" height="110" as="geometry" />
        </mxCell>
        <mxCell id="oZMk_79STPliOTQRdug_-26" style="edgeStyle=orthogonalEdgeStyle;rounded=0;orthogonalLoop=1;jettySize=auto;html=1;exitX=0.5;exitY=0;exitDx=0;exitDy=0;exitPerimeter=0;entryX=0;entryY=0.5;entryDx=0;entryDy=0;entryPerimeter=0;" edge="1" parent="1" source="oZMk_79STPliOTQRdug_-23" target="oZMk_79STPliOTQRdug_-21">
          <mxGeometry relative="1" as="geometry" />
        </mxCell>
        <mxCell id="oZMk_79STPliOTQRdug_-23" value="YAML" style="verticalLabelPosition=bottom;html=1;verticalAlign=top;align=center;strokeColor=none;fillColor=#00BEF2;shape=mxgraph.azure.cloud_services_configuration_file;pointerEvents=1;" vertex="1" parent="1">
          <mxGeometry x="10" y="290" width="47.5" height="50" as="geometry" />
        </mxCell>
        <mxCell id="oZMk_79STPliOTQRdug_-27" style="edgeStyle=orthogonalEdgeStyle;rounded=0;orthogonalLoop=1;jettySize=auto;html=1;exitX=0.5;exitY=0;exitDx=0;exitDy=0;exitPerimeter=0;" edge="1" parent="1" source="oZMk_79STPliOTQRdug_-24" target="oZMk_79STPliOTQRdug_-22">
          <mxGeometry relative="1" as="geometry">
            <mxPoint x="93.79999999999995" y="290" as="sourcePoint" />
            <mxPoint x="70" y="275" as="targetPoint" />
          </mxGeometry>
        </mxCell>
        <mxCell id="oZMk_79STPliOTQRdug_-24" value="YAML" style="verticalLabelPosition=bottom;html=1;verticalAlign=top;align=center;strokeColor=none;fillColor=#00BEF2;shape=mxgraph.azure.cloud_services_configuration_file;pointerEvents=1;" vertex="1" parent="1">
          <mxGeometry x="70" y="320" width="47.5" height="40" as="geometry" />
        </mxCell>
        <mxCell id="oZMk_79STPliOTQRdug_-28" style="edgeStyle=orthogonalEdgeStyle;rounded=0;orthogonalLoop=1;jettySize=auto;html=1;entryX=1;entryY=0.5;entryDx=0;entryDy=0;entryPerimeter=0;" edge="1" parent="1" source="oZMk_79STPliOTQRdug_-25" target="oZMk_79STPliOTQRdug_-21">
          <mxGeometry relative="1" as="geometry" />
        </mxCell>
        <mxCell id="oZMk_79STPliOTQRdug_-25" value="YAML" style="verticalLabelPosition=bottom;html=1;verticalAlign=top;align=center;strokeColor=none;fillColor=#00BEF2;shape=mxgraph.azure.cloud_services_configuration_file;pointerEvents=1;" vertex="1" parent="1">
          <mxGeometry x="120" y="310" width="47.5" height="40" as="geometry" />
        </mxCell>
        <mxCell id="oZMk_79STPliOTQRdug_-33" style="edgeStyle=orthogonalEdgeStyle;rounded=0;orthogonalLoop=1;jettySize=auto;html=1;entryX=0.005;entryY=0.63;entryDx=0;entryDy=0;entryPerimeter=0;" edge="1" parent="1" source="oZMk_79STPliOTQRdug_-29" target="oZMk_79STPliOTQRdug_-32">
          <mxGeometry relative="1" as="geometry" />
        </mxCell>
        <mxCell id="oZMk_79STPliOTQRdug_-29" value="HELM" style="points=[[0,0,0],[0.25,0,0],[0.5,0,0],[0.75,0,0],[1,0,0],[0,1,0],[0.25,1,0],[0.5,1,0],[0.75,1,0],[1,1,0],[0,0.25,0],[0,0.5,0],[0,0.75,0],[1,0.25,0],[1,0.5,0],[1,0.75,0]];outlineConnect=0;fontColor=#232F3E;gradientColor=#4D72F3;gradientDirection=north;fillColor=#3334B9;strokeColor=#ffffff;dashed=0;verticalLabelPosition=bottom;verticalAlign=top;align=center;html=1;fontSize=12;fontStyle=0;aspect=fixed;shape=mxgraph.aws4.resourceIcon;resIcon=mxgraph.aws4.command_line_interface;" vertex="1" parent="1">
          <mxGeometry x="180" y="210" width="78" height="78" as="geometry" />
        </mxCell>
        <mxCell id="oZMk_79STPliOTQRdug_-43" value="" style="group" vertex="1" connectable="0" parent="1">
          <mxGeometry x="310" y="110" width="430" height="290" as="geometry" />
        </mxCell>
        <mxCell id="oZMk_79STPliOTQRdug_-19" value="" style="rounded=1;whiteSpace=wrap;html=1;" vertex="1" parent="oZMk_79STPliOTQRdug_-43">
          <mxGeometry width="430" height="290" as="geometry" />
        </mxCell>
        <mxCell id="oZMk_79STPliOTQRdug_-3" value="Pod" style="html=1;dashed=0;whitespace=wrap;fillColor=#2875E2;strokeColor=#ffffff;points=[[0.005,0.63,0],[0.1,0.2,0],[0.9,0.2,0],[0.5,0,0],[0.995,0.63,0],[0.72,0.99,0],[0.5,1,0],[0.28,0.99,0]];shape=mxgraph.kubernetes.icon;prIcon=pod;spacingBottom=90;" vertex="1" parent="oZMk_79STPliOTQRdug_-43">
          <mxGeometry x="266.2790697674418" y="96.66666666666669" width="51.16279069767442" height="42.18181818181818" as="geometry" />
        </mxCell>
        <mxCell id="oZMk_79STPliOTQRdug_-13" style="edgeStyle=orthogonalEdgeStyle;rounded=0;orthogonalLoop=1;jettySize=auto;html=1;exitX=0.995;exitY=0.63;exitDx=0;exitDy=0;exitPerimeter=0;entryX=0.005;entryY=0.63;entryDx=0;entryDy=0;entryPerimeter=0;" edge="1" parent="oZMk_79STPliOTQRdug_-43" source="oZMk_79STPliOTQRdug_-5" target="oZMk_79STPliOTQRdug_-3">
          <mxGeometry x="-10" as="geometry" />
        </mxCell>
        <mxCell id="oZMk_79STPliOTQRdug_-5" value="Service" style="html=1;dashed=0;whitespace=wrap;fillColor=#2875E2;strokeColor=#ffffff;points=[[0.005,0.63,0],[0.1,0.2,0],[0.9,0.2,0],[0.5,0,0],[0.995,0.63,0],[0.72,0.99,0],[0.5,1,0],[0.28,0.99,0]];shape=mxgraph.kubernetes.icon;prIcon=svc;spacingBottom=90;" vertex="1" parent="oZMk_79STPliOTQRdug_-43">
          <mxGeometry x="184.42093023255813" y="96.66666666666669" width="51.16279069767442" height="42.18181818181818" as="geometry" />
        </mxCell>
        <mxCell id="oZMk_79STPliOTQRdug_-14" style="edgeStyle=orthogonalEdgeStyle;rounded=0;orthogonalLoop=1;jettySize=auto;html=1;exitX=0.995;exitY=0.63;exitDx=0;exitDy=0;exitPerimeter=0;entryX=0.005;entryY=0.63;entryDx=0;entryDy=0;entryPerimeter=0;" edge="1" parent="oZMk_79STPliOTQRdug_-43" source="oZMk_79STPliOTQRdug_-7" target="oZMk_79STPliOTQRdug_-5">
          <mxGeometry x="-10" as="geometry" />
        </mxCell>
        <mxCell id="oZMk_79STPliOTQRdug_-7" value="&lt;span&gt;Ingress&lt;/span&gt;&lt;br&gt;&lt;span&gt;reverse proxy&lt;/span&gt;" style="html=1;dashed=0;whitespace=wrap;fillColor=#2875E2;strokeColor=#ffffff;points=[[0.005,0.63,0],[0.1,0.2,0],[0.9,0.2,0],[0.5,0,0],[0.995,0.63,0],[0.72,0.99,0],[0.5,1,0],[0.28,0.99,0]];shape=mxgraph.kubernetes.icon;prIcon=ing;spacingBottom=90;" vertex="1" parent="oZMk_79STPliOTQRdug_-43">
          <mxGeometry x="89.99767441860467" y="96.66666666666669" width="51.16279069767442" height="42.18181818181818" as="geometry" />
        </mxCell>
        <mxCell id="oZMk_79STPliOTQRdug_-9" value="Config Map" style="html=1;dashed=0;whitespace=wrap;fillColor=#2875E2;strokeColor=#ffffff;points=[[0.005,0.63,0],[0.1,0.2,0],[0.9,0.2,0],[0.5,0,0],[0.995,0.63,0],[0.72,0.99,0],[0.5,1,0],[0.28,0.99,0]];shape=mxgraph.kubernetes.icon;prIcon=cm;spacingBottom=-90;" vertex="1" parent="oZMk_79STPliOTQRdug_-43">
          <mxGeometry x="317.4418604651163" y="202.12121212121212" width="51.16279069767442" height="42.18181818181818" as="geometry" />
        </mxCell>
        <mxCell id="oZMk_79STPliOTQRdug_-12" style="edgeStyle=orthogonalEdgeStyle;rounded=0;orthogonalLoop=1;jettySize=auto;html=1;exitX=0.995;exitY=0.63;exitDx=0;exitDy=0;exitPerimeter=0;entryX=0.5;entryY=0;entryDx=0;entryDy=0;entryPerimeter=0;" edge="1" parent="oZMk_79STPliOTQRdug_-43" source="oZMk_79STPliOTQRdug_-3" target="oZMk_79STPliOTQRdug_-9">
          <mxGeometry x="-10" as="geometry" />
        </mxCell>
        <mxCell id="oZMk_79STPliOTQRdug_-15" value="Secret" style="html=1;dashed=0;whitespace=wrap;fillColor=#2875E2;strokeColor=#ffffff;points=[[0.005,0.63,0],[0.1,0.2,0],[0.9,0.2,0],[0.5,0,0],[0.995,0.63,0],[0.72,0.99,0],[0.5,1,0],[0.28,0.99,0]];shape=mxgraph.kubernetes.icon;prIcon=secret;spacingTop=-70;" vertex="1" parent="oZMk_79STPliOTQRdug_-43">
          <mxGeometry x="331.76744186046506" y="19.333333333333343" width="51.16279069767442" height="42.18181818181818" as="geometry" />
        </mxCell>
        <mxCell id="oZMk_79STPliOTQRdug_-16" style="edgeStyle=orthogonalEdgeStyle;rounded=0;orthogonalLoop=1;jettySize=auto;html=1;exitX=0.995;exitY=0.63;exitDx=0;exitDy=0;exitPerimeter=0;entryX=0.5;entryY=1;entryDx=0;entryDy=0;entryPerimeter=0;" edge="1" parent="oZMk_79STPliOTQRdug_-43" source="oZMk_79STPliOTQRdug_-3" target="oZMk_79STPliOTQRdug_-15">
          <mxGeometry x="-10" as="geometry" />
        </mxCell>
        <mxCell id="oZMk_79STPliOTQRdug_-17" value="Volume" style="html=1;dashed=0;whitespace=wrap;fillColor=#2875E2;strokeColor=#ffffff;points=[[0.005,0.63,0],[0.1,0.2,0],[0.9,0.2,0],[0.5,0,0],[0.995,0.63,0],[0.72,0.99,0],[0.5,1,0],[0.28,0.99,0]];shape=mxgraph.kubernetes.icon;prIcon=vol;spacingBottom=-90;" vertex="1" parent="oZMk_79STPliOTQRdug_-43">
          <mxGeometry x="215.11627906976742" y="202.12121212121212" width="51.16279069767442" height="42.18181818181818" as="geometry" />
        </mxCell>
        <mxCell id="oZMk_79STPliOTQRdug_-18" style="edgeStyle=orthogonalEdgeStyle;rounded=0;orthogonalLoop=1;jettySize=auto;html=1;exitX=0.5;exitY=1;exitDx=0;exitDy=0;exitPerimeter=0;entryX=0.5;entryY=0;entryDx=0;entryDy=0;entryPerimeter=0;" edge="1" parent="oZMk_79STPliOTQRdug_-43" source="oZMk_79STPliOTQRdug_-3" target="oZMk_79STPliOTQRdug_-17">
          <mxGeometry x="-10" as="geometry" />
        </mxCell>
        <mxCell id="oZMk_79STPliOTQRdug_-32" value="" style="html=1;dashed=0;whitespace=wrap;fillColor=#2875E2;strokeColor=#ffffff;points=[[0.005,0.63,0],[0.1,0.2,0],[0.9,0.2,0],[0.5,0,0],[0.995,0.63,0],[0.72,0.99,0],[0.5,1,0],[0.28,0.99,0]];shape=mxgraph.kubernetes.icon;prIcon=api" vertex="1" parent="oZMk_79STPliOTQRdug_-43">
          <mxGeometry y="95" width="50" height="50" as="geometry" />
        </mxCell>
        <mxCell id="oZMk_79STPliOTQRdug_-39" value="" style="line;strokeWidth=2;direction=south;html=1;dashed=1;" vertex="1" parent="oZMk_79STPliOTQRdug_-43">
          <mxGeometry x="60" y="70" width="10" height="160" as="geometry" />
        </mxCell>
      </root>
    </mxGraphModel>
  </diagram>
</mxfile>
